# xmcd
#
# Track frame offsets: 
#        150
#        16586
#        37628
#        51003
#        72458
#        93642
#        115862
#        129964
#        147282
#        161853
#
# Disc length: 2353 seconds
#
# Revision: 0
# Processed by: cddbd v1.5.2PL0 Copyright (c) Steve Scherf et al.
# Submitted via: ExactAudioCopy v0.95a4
#
DISCID=7d092f0a
DTITLE=Brooks, Elkie - The Silver Collecton
DYEAR=2007
DGENRE=Country
TTITLE0=Pearl's a Singer
TTITLE1=Nights in White Satin
TTITLE2=Loving Arms
TTITLE3=Money
TTITLE4=I Guess That's Why They Call It The Blues
TTITLE5=Fool If You Think It's Over
TTITLE6=Only Love Can Break Your Heart
TTITLE7=Our Love
TTITLE8=Don't Stop
TTITLE9=Too Much Between Us
EXTD=
EXTT0=
EXTT1=
EXTT2=
EXTT3=
EXTT4=
EXTT5=
EXTT6=
EXTT7=
EXTT8=
EXTT9=
PLAYORDER=
